<?xml version="1.0" encoding="UTF-8" standalone="no"?>
<!DOCTYPE svg PUBLIC "-//W3C//DTD SVG 1.1//EN"
 "http://www.w3.org/Graphics/SVG/1.1/DTD/svg11.dtd">
<!-- Generated by graphviz version 2.47.0 (20210316.0004)
 -->
<!-- Title: dependencies Pages: 1 -->
<svg width="1066pt" height="284pt"
 viewBox="0.00 0.00 1066.00 284.00" xmlns="http://www.w3.org/2000/svg" xmlns:xlink="http://www.w3.org/1999/xlink">
<g id="graph0" class="graph" transform="scale(1 1) rotate(0) translate(4 280)">
<title>dependencies</title>
<polygon fill="white" stroke="transparent" points="-4,4 -4,-280 1062,-280 1062,4 -4,4"/>
<text text-anchor="start" x="508.01" y="-42.4" font-family="Times-12" font-weight="bold" font-size="14.00">Legend</text>
<polygon fill="#ffffb3" stroke="transparent" points="295,-10 295,-30 315,-30 315,-10 295,-10"/>
<text text-anchor="start" x="318.63" y="-15.4" font-family="Times-12" font-size="14.00"> &#160;Declarations</text>
<polygon fill="#8dd3c7" stroke="transparent" points="408,-10 408,-30 428,-30 428,-10 408,-10"/>
<text text-anchor="start" x="431.73" y="-15.4" font-family="Times-12" font-size="14.00"> &#160;Module</text>
<polygon fill="#80b1d3" stroke="transparent" points="494,-10 494,-30 514,-30 514,-10 494,-10"/>
<text text-anchor="start" x="517.78" y="-15.4" font-family="Times-12" font-size="14.00"> &#160;Bootstrap</text>
<polygon fill="#fdb462" stroke="transparent" points="591,-10 591,-30 611,-30 611,-10 591,-10"/>
<text text-anchor="start" x="614.67" y="-15.4" font-family="Times-12" font-size="14.00"> &#160;Providers</text>
<polygon fill="#fb8072" stroke="transparent" points="687,-10 687,-30 707,-30 707,-10 687,-10"/>
<text text-anchor="start" x="710.73" y="-15.4" font-family="Times-12" font-size="14.00"> &#160;Exports</text>
<g id="clust1" class="cluster">
<title>cluster_CoreModule</title>
<polygon fill="none" stroke="black" stroke-dasharray="1,5" points="8,-70 8,-268 1050,-268 1050,-70 8,-70"/>
</g>
<g id="clust2" class="cluster">
<title>cluster_CoreModule_declarations</title>
<polygon fill="none" stroke="black" points="224,-78 224,-130 1042,-130 1042,-78 224,-78"/>
</g>
<g id="clust9" class="cluster">
<title>cluster_CoreModule_exports</title>
<polygon fill="none" stroke="black" points="122,-208 122,-260 958,-260 958,-208 122,-208"/>
</g>
<g id="clust11" class="cluster">
<title>cluster_CoreModule_providers</title>
<polygon fill="none" stroke="black" points="16,-78 16,-130 216,-130 216,-78 16,-78"/>
</g>
<!-- FooterComponent -->
<g id="node1" class="node">
<title>FooterComponent</title>
<polygon fill="#ffffb3" stroke="black" points="1033.88,-122 916.12,-122 916.12,-86 1033.88,-86 1033.88,-122"/>
<text text-anchor="middle" x="975" y="-99.8" font-family="Times,serif" font-size="14.00">FooterComponent</text>
</g>
<!-- CoreModule -->
<g id="node6" class="node">
<title>CoreModule</title>
<polygon fill="#8dd3c7" stroke="black" points="626.26,-187 623.26,-191 602.26,-191 599.26,-187 539.74,-187 539.74,-151 626.26,-151 626.26,-187"/>
<text text-anchor="middle" x="583" y="-164.8" font-family="Times,serif" font-size="14.00">CoreModule</text>
</g>
<!-- FooterComponent&#45;&gt;CoreModule -->
<g id="edge1" class="edge">
<title>FooterComponent&#45;&gt;CoreModule</title>
<path fill="none" stroke="black" d="M932.88,-122.27C932.88,-140.56 932.88,-166 932.88,-166 932.88,-166 636.6,-166 636.6,-166"/>
<polygon fill="black" stroke="black" points="636.6,-162.5 626.6,-166 636.6,-169.5 636.6,-162.5"/>
</g>
<!-- HeaderComponent -->
<g id="node2" class="node">
<title>HeaderComponent</title>
<polygon fill="#ffffb3" stroke="black" points="897.74,-122 776.26,-122 776.26,-86 897.74,-86 897.74,-122"/>
<text text-anchor="middle" x="837" y="-99.8" font-family="Times,serif" font-size="14.00">HeaderComponent</text>
</g>
<!-- HeaderComponent&#45;&gt;CoreModule -->
<g id="edge2" class="edge">
<title>HeaderComponent&#45;&gt;CoreModule</title>
<path fill="none" stroke="black" d="M793.38,-122.01C793.38,-138.05 793.38,-159 793.38,-159 793.38,-159 636.33,-159 636.33,-159"/>
<polygon fill="black" stroke="black" points="636.33,-155.5 626.33,-159 636.33,-162.5 636.33,-155.5"/>
</g>
<!-- NewsCardItemComponent -->
<g id="node3" class="node">
<title>NewsCardItemComponent</title>
<polygon fill="#ffffb3" stroke="black" points="758.07,-122 591.93,-122 591.93,-86 758.07,-86 758.07,-122"/>
<text text-anchor="middle" x="675" y="-99.8" font-family="Times,serif" font-size="14.00">NewsCardItemComponent</text>
</g>
<!-- NewsCardItemComponent&#45;&gt;CoreModule -->
<g id="edge3" class="edge">
<title>NewsCardItemComponent&#45;&gt;CoreModule</title>
<path fill="none" stroke="black" d="M609.17,-122.11C609.17,-122.11 609.17,-140.99 609.17,-140.99"/>
<polygon fill="black" stroke="black" points="605.67,-140.99 609.17,-150.99 612.67,-140.99 605.67,-140.99"/>
</g>
<!-- PillTabItemComponent -->
<g id="node4" class="node">
<title>PillTabItemComponent</title>
<polygon fill="#ffffb3" stroke="black" points="574.21,-122 425.79,-122 425.79,-86 574.21,-86 574.21,-122"/>
<text text-anchor="middle" x="500" y="-99.8" font-family="Times,serif" font-size="14.00">PillTabItemComponent</text>
</g>
<!-- PillTabItemComponent&#45;&gt;CoreModule -->
<g id="edge4" class="edge">
<title>PillTabItemComponent&#45;&gt;CoreModule</title>
<path fill="none" stroke="black" d="M556.86,-122.11C556.86,-122.11 556.86,-140.99 556.86,-140.99"/>
<polygon fill="black" stroke="black" points="553.36,-140.99 556.86,-150.99 560.36,-140.99 553.36,-140.99"/>
</g>
<!-- ServiceCardItemComponent -->
<g id="node5" class="node">
<title>ServiceCardItemComponent</title>
<polygon fill="#ffffb3" stroke="black" points="408.18,-122 231.82,-122 231.82,-86 408.18,-86 408.18,-122"/>
<text text-anchor="middle" x="320" y="-99.8" font-family="Times,serif" font-size="14.00">ServiceCardItemComponent</text>
</g>
<!-- ServiceCardItemComponent&#45;&gt;CoreModule -->
<g id="edge5" class="edge">
<title>ServiceCardItemComponent&#45;&gt;CoreModule</title>
<path fill="none" stroke="black" d="M368.12,-122.01C368.12,-138.05 368.12,-159 368.12,-159 368.12,-159 529.52,-159 529.52,-159"/>
<polygon fill="black" stroke="black" points="529.52,-162.5 539.52,-159 529.52,-155.5 529.52,-162.5"/>
</g>
<!-- FooterComponent  -->
<g id="node7" class="node">
<title>FooterComponent </title>
<polygon fill="#fb8072" stroke="black" points="949.88,-252 828.12,-252 828.12,-216 949.88,-216 949.88,-252"/>
<text text-anchor="middle" x="889" y="-229.8" font-family="Times,serif" font-size="14.00">FooterComponent </text>
</g>
<!-- CoreModule&#45;&gt;FooterComponent  -->
<g id="edge6" class="edge">
<title>CoreModule&#45;&gt;FooterComponent </title>
<path fill="none" stroke="black" stroke-dasharray="5,2" d="M626.46,-173C705.13,-173 863.09,-173 863.09,-173 863.09,-173 863.09,-205.7 863.09,-205.7"/>
<polygon fill="black" stroke="black" points="859.59,-205.7 863.09,-215.7 866.59,-205.7 859.59,-205.7"/>
</g>
<!-- HeaderComponent  -->
<g id="node8" class="node">
<title>HeaderComponent </title>
<polygon fill="#fb8072" stroke="black" points="810.74,-252 685.26,-252 685.26,-216 810.74,-216 810.74,-252"/>
<text text-anchor="middle" x="748" y="-229.8" font-family="Times,serif" font-size="14.00">HeaderComponent </text>
</g>
<!-- CoreModule&#45;&gt;HeaderComponent  -->
<g id="edge7" class="edge">
<title>CoreModule&#45;&gt;HeaderComponent </title>
<path fill="none" stroke="black" stroke-dasharray="5,2" d="M626.51,-180C667.19,-180 721.71,-180 721.71,-180 721.71,-180 721.71,-205.72 721.71,-205.72"/>
<polygon fill="black" stroke="black" points="718.21,-205.72 721.71,-215.72 725.21,-205.72 718.21,-205.72"/>
</g>
<!-- NewsCardItemComponent  -->
<g id="node9" class="node">
<title>NewsCardItemComponent </title>
<polygon fill="#fb8072" stroke="black" points="667.57,-252 498.43,-252 498.43,-216 667.57,-216 667.57,-252"/>
<text text-anchor="middle" x="583" y="-229.8" font-family="Times,serif" font-size="14.00">NewsCardItemComponent </text>
</g>
<!-- CoreModule&#45;&gt;NewsCardItemComponent  -->
<g id="edge8" class="edge">
<title>CoreModule&#45;&gt;NewsCardItemComponent </title>
<path fill="none" stroke="black" stroke-dasharray="5,2" d="M583,-187.11C583,-187.11 583,-205.99 583,-205.99"/>
<polygon fill="black" stroke="black" points="579.5,-205.99 583,-215.99 586.5,-205.99 579.5,-205.99"/>
</g>
<!-- PillTabItemComponent  -->
<g id="node10" class="node">
<title>PillTabItemComponent </title>
<polygon fill="#fb8072" stroke="black" points="479.71,-252 328.29,-252 328.29,-216 479.71,-216 479.71,-252"/>
<text text-anchor="middle" x="404" y="-229.8" font-family="Times,serif" font-size="14.00">PillTabItemComponent </text>
</g>
<!-- CoreModule&#45;&gt;PillTabItemComponent  -->
<g id="edge9" class="edge">
<title>CoreModule&#45;&gt;PillTabItemComponent </title>
<path fill="none" stroke="black" stroke-dasharray="5,2" d="M539.67,-180C501.82,-180 452.88,-180 452.88,-180 452.88,-180 452.88,-205.72 452.88,-205.72"/>
<polygon fill="black" stroke="black" points="449.38,-205.72 452.88,-215.72 456.38,-205.72 449.38,-205.72"/>
</g>
<!-- ServiceCardItemComponent  -->
<g id="node11" class="node">
<title>ServiceCardItemComponent </title>
<polygon fill="#fb8072" stroke="black" points="309.68,-252 130.32,-252 130.32,-216 309.68,-216 309.68,-252"/>
<text text-anchor="middle" x="220" y="-229.8" font-family="Times,serif" font-size="14.00">ServiceCardItemComponent </text>
</g>
<!-- CoreModule&#45;&gt;ServiceCardItemComponent  -->
<g id="edge10" class="edge">
<title>CoreModule&#45;&gt;ServiceCardItemComponent </title>
<path fill="none" stroke="black" stroke-dasharray="5,2" d="M539.6,-173C453.84,-173 270.88,-173 270.88,-173 270.88,-173 270.88,-205.7 270.88,-205.7"/>
<polygon fill="black" stroke="black" points="267.38,-205.7 270.88,-215.7 274.38,-205.7 267.38,-205.7"/>
</g>
<!-- ThingsWeDoService -->
<g id="node12" class="node">
<title>ThingsWeDoService</title>
<ellipse fill="#fdb462" stroke="black" cx="116" cy="-104" rx="92.04" ry="18"/>
<text text-anchor="middle" x="116" y="-99.8" font-family="Times,serif" font-size="14.00">ThingsWeDoService</text>
</g>
<!-- ThingsWeDoService&#45;&gt;CoreModule -->
<g id="edge11" class="edge">
<title>ThingsWeDoService&#45;&gt;CoreModule</title>
<path fill="none" stroke="black" d="M169.09,-119.01C169.09,-137.36 169.09,-166 169.09,-166 169.09,-166 529.49,-166 529.49,-166"/>
<polygon fill="black" stroke="black" points="529.49,-169.5 539.49,-166 529.49,-162.5 529.49,-169.5"/>
</g>
</g>
</svg>
