<?xml version="1.0" encoding="UTF-8" standalone="no"?>
<!DOCTYPE svg PUBLIC "-//W3C//DTD SVG 1.1//EN"
 "http://www.w3.org/Graphics/SVG/1.1/DTD/svg11.dtd">
<!-- Generated by graphviz version 2.47.0 (20210316.0004)
 -->
<!-- Title: dependencies Pages: 1 -->
<svg width="1116pt" height="211pt"
 viewBox="0.00 0.00 1116.00 211.00" xmlns="http://www.w3.org/2000/svg" xmlns:xlink="http://www.w3.org/1999/xlink">
<g id="graph0" class="graph" transform="scale(1 1) rotate(0) translate(4 207)">
<title>dependencies</title>
<polygon fill="white" stroke="transparent" points="-4,4 -4,-207 1112,-207 1112,4 -4,4"/>
<text text-anchor="start" x="533.01" y="-42.4" font-family="Times-12" font-weight="bold" font-size="14.00">Legend</text>
<polygon fill="#ffffb3" stroke="transparent" points="320,-10 320,-30 340,-30 340,-10 320,-10"/>
<text text-anchor="start" x="343.63" y="-15.4" font-family="Times-12" font-size="14.00"> &#160;Declarations</text>
<polygon fill="#8dd3c7" stroke="transparent" points="433,-10 433,-30 453,-30 453,-10 433,-10"/>
<text text-anchor="start" x="456.73" y="-15.4" font-family="Times-12" font-size="14.00"> &#160;Module</text>
<polygon fill="#80b1d3" stroke="transparent" points="519,-10 519,-30 539,-30 539,-10 519,-10"/>
<text text-anchor="start" x="542.78" y="-15.4" font-family="Times-12" font-size="14.00"> &#160;Bootstrap</text>
<polygon fill="#fdb462" stroke="transparent" points="616,-10 616,-30 636,-30 636,-10 616,-10"/>
<text text-anchor="start" x="639.67" y="-15.4" font-family="Times-12" font-size="14.00"> &#160;Providers</text>
<polygon fill="#fb8072" stroke="transparent" points="712,-10 712,-30 732,-30 732,-10 712,-10"/>
<text text-anchor="start" x="735.73" y="-15.4" font-family="Times-12" font-size="14.00"> &#160;Exports</text>
<g id="clust1" class="cluster">
<title>cluster_HomeModule</title>
<polygon fill="none" stroke="black" stroke-dasharray="1,5" points="8,-70 8,-195 1100,-195 1100,-70 8,-70"/>
</g>
<g id="clust7" class="cluster">
<title>cluster_HomeModule_imports</title>
<polygon fill="none" stroke="black" points="990,-78 990,-130 1092,-130 1092,-78 990,-78"/>
</g>
<g id="clust10" class="cluster">
<title>cluster_HomeModule_providers</title>
<polygon fill="none" stroke="black" points="688,-78 688,-130 982,-130 982,-78 688,-78"/>
</g>
<g id="clust2" class="cluster">
<title>cluster_HomeModule_declarations</title>
<polygon fill="none" stroke="black" points="16,-78 16,-130 680,-130 680,-78 16,-78"/>
</g>
<!-- HighlightBannerComponent -->
<g id="node1" class="node">
<title>HighlightBannerComponent</title>
<polygon fill="#ffffb3" stroke="black" points="671.93,-122 496.07,-122 496.07,-86 671.93,-86 671.93,-122"/>
<text text-anchor="middle" x="584" y="-99.8" font-family="Times,serif" font-size="14.00">HighlightBannerComponent</text>
</g>
<!-- HomeModule -->
<g id="node5" class="node">
<title>HomeModule</title>
<polygon fill="#8dd3c7" stroke="black" points="630.76,-187 627.76,-191 606.76,-191 603.76,-187 537.24,-187 537.24,-151 630.76,-151 630.76,-187"/>
<text text-anchor="middle" x="584" y="-164.8" font-family="Times,serif" font-size="14.00">HomeModule</text>
</g>
<!-- HighlightBannerComponent&#45;&gt;HomeModule -->
<g id="edge1" class="edge">
<title>HighlightBannerComponent&#45;&gt;HomeModule</title>
<path fill="none" stroke="black" d="M584,-122.11C584,-122.11 584,-140.99 584,-140.99"/>
<polygon fill="black" stroke="black" points="580.5,-140.99 584,-150.99 587.5,-140.99 580.5,-140.99"/>
</g>
<!-- HomeComponent -->
<g id="node2" class="node">
<title>HomeComponent</title>
<polygon fill="#ffffb3" stroke="black" points="478.55,-122 363.45,-122 363.45,-86 478.55,-86 478.55,-122"/>
<text text-anchor="middle" x="421" y="-99.8" font-family="Times,serif" font-size="14.00">HomeComponent</text>
</g>
<!-- HomeComponent&#45;&gt;HomeModule -->
<g id="edge2" class="edge">
<title>HomeComponent&#45;&gt;HomeModule</title>
<path fill="none" stroke="black" d="M421,-122.03C421,-138.4 421,-160 421,-160 421,-160 526.85,-160 526.85,-160"/>
<polygon fill="black" stroke="black" points="526.85,-163.5 536.85,-160 526.85,-156.5 526.85,-163.5"/>
</g>
<!-- LatestNewsComponent -->
<g id="node3" class="node">
<title>LatestNewsComponent</title>
<polygon fill="#ffffb3" stroke="black" points="345.91,-122 198.09,-122 198.09,-86 345.91,-86 345.91,-122"/>
<text text-anchor="middle" x="272" y="-99.8" font-family="Times,serif" font-size="14.00">LatestNewsComponent</text>
</g>
<!-- LatestNewsComponent&#45;&gt;HomeModule -->
<g id="edge3" class="edge">
<title>LatestNewsComponent&#45;&gt;HomeModule</title>
<path fill="none" stroke="black" d="M272,-122.11C272,-141.34 272,-169 272,-169 272,-169 526.95,-169 526.95,-169"/>
<polygon fill="black" stroke="black" points="526.95,-172.5 536.95,-169 526.95,-165.5 526.95,-172.5"/>
</g>
<!-- ThingsWeDoComponent -->
<g id="node4" class="node">
<title>ThingsWeDoComponent</title>
<polygon fill="#ffffb3" stroke="black" points="180.26,-122 23.74,-122 23.74,-86 180.26,-86 180.26,-122"/>
<text text-anchor="middle" x="102" y="-99.8" font-family="Times,serif" font-size="14.00">ThingsWeDoComponent</text>
</g>
<!-- ThingsWeDoComponent&#45;&gt;HomeModule -->
<g id="edge4" class="edge">
<title>ThingsWeDoComponent&#45;&gt;HomeModule</title>
<path fill="none" stroke="black" d="M102,-122.29C102,-144.21 102,-178 102,-178 102,-178 526.91,-178 526.91,-178"/>
<polygon fill="black" stroke="black" points="526.91,-181.5 536.91,-178 526.91,-174.5 526.91,-181.5"/>
</g>
<!-- CoreModule -->
<g id="node6" class="node">
<title>CoreModule</title>
<polygon fill="#8dd3c7" stroke="black" points="1084.26,-122 1081.26,-126 1060.26,-126 1057.26,-122 997.74,-122 997.74,-86 1084.26,-86 1084.26,-122"/>
<text text-anchor="middle" x="1041" y="-99.8" font-family="Times,serif" font-size="14.00">CoreModule</text>
</g>
<!-- CoreModule&#45;&gt;HomeModule -->
<g id="edge5" class="edge">
<title>CoreModule&#45;&gt;HomeModule</title>
<path fill="none" stroke="black" d="M1041,-122.29C1041,-144.21 1041,-178 1041,-178 1041,-178 641.19,-178 641.19,-178"/>
<polygon fill="black" stroke="black" points="641.19,-174.5 631.19,-178 641.19,-181.5 641.19,-174.5"/>
</g>
<!-- BannerService -->
<g id="node7" class="node">
<title>BannerService</title>
<ellipse fill="#fdb462" stroke="black" cx="906" cy="-104" rx="67.75" ry="18"/>
<text text-anchor="middle" x="906" y="-99.8" font-family="Times,serif" font-size="14.00">BannerService</text>
</g>
<!-- BannerService&#45;&gt;HomeModule -->
<g id="edge6" class="edge">
<title>BannerService&#45;&gt;HomeModule</title>
<path fill="none" stroke="black" d="M906,-122.11C906,-141.34 906,-169 906,-169 906,-169 640.82,-169 640.82,-169"/>
<polygon fill="black" stroke="black" points="640.82,-165.5 630.82,-169 640.82,-172.5 640.82,-165.5"/>
</g>
<!-- NewsService -->
<g id="node8" class="node">
<title>NewsService</title>
<ellipse fill="#fdb462" stroke="black" cx="758" cy="-104" rx="61.95" ry="18"/>
<text text-anchor="middle" x="758" y="-99.8" font-family="Times,serif" font-size="14.00">NewsService</text>
</g>
<!-- NewsService&#45;&gt;HomeModule -->
<g id="edge7" class="edge">
<title>NewsService&#45;&gt;HomeModule</title>
<path fill="none" stroke="black" d="M758,-122.03C758,-138.4 758,-160 758,-160 758,-160 641.09,-160 641.09,-160"/>
<polygon fill="black" stroke="black" points="641.09,-156.5 631.09,-160 641.09,-163.5 641.09,-156.5"/>
</g>
</g>
</svg>
