<?xml version="1.0" encoding="UTF-8" standalone="no"?>
<!DOCTYPE svg PUBLIC "-//W3C//DTD SVG 1.1//EN"
 "http://www.w3.org/Graphics/SVG/1.1/DTD/svg11.dtd">
<!-- Generated by graphviz version 2.47.0 (20210316.0004)
 -->
<!-- Title: dependencies Pages: 1 -->
<svg width="2056pt" height="287pt"
 viewBox="0.00 0.00 2056.00 287.00" xmlns="http://www.w3.org/2000/svg" xmlns:xlink="http://www.w3.org/1999/xlink">
<g id="graph0" class="graph" transform="scale(1 1) rotate(0) translate(4 283)">
<title>dependencies</title>
<polygon fill="white" stroke="transparent" points="-4,4 -4,-283 2052,-283 2052,4 -4,4"/>
<text text-anchor="start" x="1003.01" y="-42.4" font-family="Times-12" font-weight="bold" font-size="14.00">Legend</text>
<polygon fill="#ffffb3" stroke="transparent" points="790,-10 790,-30 810,-30 810,-10 790,-10"/>
<text text-anchor="start" x="813.63" y="-15.4" font-family="Times-12" font-size="14.00"> &#160;Declarations</text>
<polygon fill="#8dd3c7" stroke="transparent" points="903,-10 903,-30 923,-30 923,-10 903,-10"/>
<text text-anchor="start" x="926.73" y="-15.4" font-family="Times-12" font-size="14.00"> &#160;Module</text>
<polygon fill="#80b1d3" stroke="transparent" points="989,-10 989,-30 1009,-30 1009,-10 989,-10"/>
<text text-anchor="start" x="1012.78" y="-15.4" font-family="Times-12" font-size="14.00"> &#160;Bootstrap</text>
<polygon fill="#fdb462" stroke="transparent" points="1086,-10 1086,-30 1106,-30 1106,-10 1086,-10"/>
<text text-anchor="start" x="1109.67" y="-15.4" font-family="Times-12" font-size="14.00"> &#160;Providers</text>
<polygon fill="#fb8072" stroke="transparent" points="1182,-10 1182,-30 1202,-30 1202,-10 1182,-10"/>
<text text-anchor="start" x="1205.73" y="-15.4" font-family="Times-12" font-size="14.00"> &#160;Exports</text>
<g id="clust1" class="cluster">
<title>cluster_CoreModule</title>
<polygon fill="none" stroke="black" stroke-dasharray="1,5" points="8,-70 8,-271 1050,-271 1050,-70 8,-70"/>
</g>
<g id="clust2" class="cluster">
<title>cluster_CoreModule_declarations</title>
<polygon fill="none" stroke="black" points="224,-78 224,-130 1042,-130 1042,-78 224,-78"/>
</g>
<g id="clust9" class="cluster">
<title>cluster_CoreModule_exports</title>
<polygon fill="none" stroke="black" points="206,-211 206,-263 1042,-263 1042,-211 206,-211"/>
</g>
<g id="clust11" class="cluster">
<title>cluster_CoreModule_providers</title>
<polygon fill="none" stroke="black" points="16,-78 16,-130 216,-130 216,-78 16,-78"/>
</g>
<g id="clust12" class="cluster">
<title>cluster_HomeModule</title>
<polygon fill="none" stroke="black" stroke-dasharray="1,5" points="1058,-138 1058,-263 2040,-263 2040,-138 1058,-138"/>
</g>
<g id="clust13" class="cluster">
<title>cluster_HomeModule_declarations</title>
<polygon fill="none" stroke="black" points="1368,-146 1368,-198 2032,-198 2032,-146 1368,-146"/>
</g>
<g id="clust21" class="cluster">
<title>cluster_HomeModule_providers</title>
<polygon fill="none" stroke="black" points="1066,-146 1066,-198 1360,-198 1360,-146 1066,-146"/>
</g>
<!-- FooterComponent -->
<g id="node1" class="node">
<title>FooterComponent</title>
<polygon fill="#ffffb3" stroke="black" points="1033.88,-122 916.12,-122 916.12,-86 1033.88,-86 1033.88,-122"/>
<text text-anchor="middle" x="975" y="-99.8" font-family="Times,serif" font-size="14.00">FooterComponent</text>
</g>
<!-- CoreModule -->
<g id="node6" class="node">
<title>CoreModule</title>
<polygon fill="#8dd3c7" stroke="black" points="714.26,-190 711.26,-194 690.26,-194 687.26,-190 627.74,-190 627.74,-154 714.26,-154 714.26,-190"/>
<text text-anchor="middle" x="671" y="-167.8" font-family="Times,serif" font-size="14.00">CoreModule</text>
</g>
<!-- FooterComponent&#45;&gt;CoreModule -->
<g id="edge1" class="edge">
<title>FooterComponent&#45;&gt;CoreModule</title>
<path fill="none" stroke="black" d="M955.27,-122.27C955.27,-140.56 955.27,-166 955.27,-166 955.27,-166 724.48,-166 724.48,-166"/>
<polygon fill="black" stroke="black" points="724.48,-162.5 714.48,-166 724.48,-169.5 724.48,-162.5"/>
</g>
<!-- HeaderComponent -->
<g id="node2" class="node">
<title>HeaderComponent</title>
<polygon fill="#ffffb3" stroke="black" points="897.74,-122 776.26,-122 776.26,-86 897.74,-86 897.74,-122"/>
<text text-anchor="middle" x="837" y="-99.8" font-family="Times,serif" font-size="14.00">HeaderComponent</text>
</g>
<!-- HeaderComponent&#45;&gt;CoreModule -->
<g id="edge2" class="edge">
<title>HeaderComponent&#45;&gt;CoreModule</title>
<path fill="none" stroke="black" d="M815.63,-122.03C815.63,-138.4 815.63,-160 815.63,-160 815.63,-160 724.39,-160 724.39,-160"/>
<polygon fill="black" stroke="black" points="724.39,-156.5 714.39,-160 724.39,-163.5 724.39,-156.5"/>
</g>
<!-- NewsCardItemComponent -->
<g id="node3" class="node">
<title>NewsCardItemComponent</title>
<polygon fill="#ffffb3" stroke="black" points="758.07,-122 591.93,-122 591.93,-86 758.07,-86 758.07,-122"/>
<text text-anchor="middle" x="675" y="-99.8" font-family="Times,serif" font-size="14.00">NewsCardItemComponent</text>
</g>
<!-- NewsCardItemComponent&#45;&gt;CoreModule -->
<g id="edge3" class="edge">
<title>NewsCardItemComponent&#45;&gt;CoreModule</title>
<path fill="none" stroke="black" d="M671,-122.22C671,-122.22 671,-143.73 671,-143.73"/>
<polygon fill="black" stroke="black" points="667.5,-143.73 671,-153.73 674.5,-143.73 667.5,-143.73"/>
</g>
<!-- PillTabItemComponent -->
<g id="node4" class="node">
<title>PillTabItemComponent</title>
<polygon fill="#ffffb3" stroke="black" points="574.21,-122 425.79,-122 425.79,-86 574.21,-86 574.21,-122"/>
<text text-anchor="middle" x="500" y="-99.8" font-family="Times,serif" font-size="14.00">PillTabItemComponent</text>
</g>
<!-- PillTabItemComponent&#45;&gt;CoreModule -->
<g id="edge4" class="edge">
<title>PillTabItemComponent&#45;&gt;CoreModule</title>
<path fill="none" stroke="black" d="M568.98,-122.03C568.98,-138.4 568.98,-160 568.98,-160 568.98,-160 617.73,-160 617.73,-160"/>
<polygon fill="black" stroke="black" points="617.73,-163.5 627.73,-160 617.73,-156.5 617.73,-163.5"/>
</g>
<!-- ServiceCardItemComponent -->
<g id="node5" class="node">
<title>ServiceCardItemComponent</title>
<polygon fill="#ffffb3" stroke="black" points="408.18,-122 231.82,-122 231.82,-86 408.18,-86 408.18,-122"/>
<text text-anchor="middle" x="320" y="-99.8" font-family="Times,serif" font-size="14.00">ServiceCardItemComponent</text>
</g>
<!-- ServiceCardItemComponent&#45;&gt;CoreModule -->
<g id="edge5" class="edge">
<title>ServiceCardItemComponent&#45;&gt;CoreModule</title>
<path fill="none" stroke="black" d="M400.96,-122.27C400.96,-140.56 400.96,-166 400.96,-166 400.96,-166 617.61,-166 617.61,-166"/>
<polygon fill="black" stroke="black" points="617.61,-169.5 627.61,-166 617.61,-162.5 617.61,-169.5"/>
</g>
<!-- FooterComponent  -->
<g id="node7" class="node">
<title>FooterComponent </title>
<polygon fill="#fb8072" stroke="black" points="1033.88,-255 912.12,-255 912.12,-219 1033.88,-219 1033.88,-255"/>
<text text-anchor="middle" x="973" y="-232.8" font-family="Times,serif" font-size="14.00">FooterComponent </text>
</g>
<!-- CoreModule&#45;&gt;FooterComponent  -->
<g id="edge6" class="edge">
<title>CoreModule&#45;&gt;FooterComponent </title>
<path fill="none" stroke="black" stroke-dasharray="5,2" d="M714.29,-178C802.44,-178 994.48,-178 994.48,-178 994.48,-178 994.48,-208.98 994.48,-208.98"/>
<polygon fill="black" stroke="black" points="990.98,-208.98 994.48,-218.98 997.98,-208.98 990.98,-208.98"/>
</g>
<!-- HeaderComponent  -->
<g id="node8" class="node">
<title>HeaderComponent </title>
<polygon fill="#fb8072" stroke="black" points="894.74,-255 769.26,-255 769.26,-219 894.74,-219 894.74,-255"/>
<text text-anchor="middle" x="832" y="-232.8" font-family="Times,serif" font-size="14.00">HeaderComponent </text>
</g>
<!-- CoreModule&#45;&gt;HeaderComponent  -->
<g id="edge7" class="edge">
<title>CoreModule&#45;&gt;HeaderComponent </title>
<path fill="none" stroke="black" stroke-dasharray="5,2" d="M714.63,-184C769.08,-184 855.12,-184 855.12,-184 855.12,-184 855.12,-208.76 855.12,-208.76"/>
<polygon fill="black" stroke="black" points="851.62,-208.76 855.12,-218.76 858.62,-208.76 851.62,-208.76"/>
</g>
<!-- NewsCardItemComponent  -->
<g id="node9" class="node">
<title>NewsCardItemComponent </title>
<polygon fill="#fb8072" stroke="black" points="751.57,-255 582.43,-255 582.43,-219 751.57,-219 751.57,-255"/>
<text text-anchor="middle" x="667" y="-232.8" font-family="Times,serif" font-size="14.00">NewsCardItemComponent </text>
</g>
<!-- CoreModule&#45;&gt;NewsCardItemComponent  -->
<g id="edge8" class="edge">
<title>CoreModule&#45;&gt;NewsCardItemComponent </title>
<path fill="none" stroke="black" stroke-dasharray="5,2" d="M671,-190.11C671,-190.11 671,-208.99 671,-208.99"/>
<polygon fill="black" stroke="black" points="667.5,-208.99 671,-218.99 674.5,-208.99 667.5,-208.99"/>
</g>
<!-- PillTabItemComponent  -->
<g id="node10" class="node">
<title>PillTabItemComponent </title>
<polygon fill="#fb8072" stroke="black" points="563.71,-255 412.29,-255 412.29,-219 563.71,-219 563.71,-255"/>
<text text-anchor="middle" x="488" y="-232.8" font-family="Times,serif" font-size="14.00">PillTabItemComponent </text>
</g>
<!-- CoreModule&#45;&gt;PillTabItemComponent  -->
<g id="edge9" class="edge">
<title>CoreModule&#45;&gt;PillTabItemComponent </title>
<path fill="none" stroke="black" stroke-dasharray="5,2" d="M627.46,-184C575.31,-184 494.88,-184 494.88,-184 494.88,-184 494.88,-208.76 494.88,-208.76"/>
<polygon fill="black" stroke="black" points="491.38,-208.76 494.88,-218.76 498.38,-208.76 491.38,-208.76"/>
</g>
<!-- ServiceCardItemComponent  -->
<g id="node11" class="node">
<title>ServiceCardItemComponent </title>
<polygon fill="#fb8072" stroke="black" points="393.68,-255 214.32,-255 214.32,-219 393.68,-219 393.68,-255"/>
<text text-anchor="middle" x="304" y="-232.8" font-family="Times,serif" font-size="14.00">ServiceCardItemComponent </text>
</g>
<!-- CoreModule&#45;&gt;ServiceCardItemComponent  -->
<g id="edge10" class="edge">
<title>CoreModule&#45;&gt;ServiceCardItemComponent </title>
<path fill="none" stroke="black" stroke-dasharray="5,2" d="M627.44,-178C532,-178 312.88,-178 312.88,-178 312.88,-178 312.88,-208.98 312.88,-208.98"/>
<polygon fill="black" stroke="black" points="309.38,-208.98 312.88,-218.98 316.38,-208.98 309.38,-208.98"/>
</g>
<!-- HomeModule -->
<g id="node17" class="node">
<title>HomeModule</title>
<polygon fill="#8dd3c7" stroke="black" points="1500.76,-255 1497.76,-259 1476.76,-259 1473.76,-255 1407.24,-255 1407.24,-219 1500.76,-219 1500.76,-255"/>
<text text-anchor="middle" x="1454" y="-232.8" font-family="Times,serif" font-size="14.00">HomeModule</text>
</g>
<!-- CoreModule&#45;&gt;HomeModule -->
<g id="edge16" class="edge">
<title>CoreModule&#45;&gt;HomeModule</title>
<path fill="none" stroke="black" d="M714.56,-172C814.94,-172 1053.98,-172 1053.98,-172 1053.98,-172 1053.98,-246 1053.98,-246 1053.98,-246 1396.94,-246 1396.94,-246"/>
<polygon fill="black" stroke="black" points="1396.94,-249.5 1406.94,-246 1396.94,-242.5 1396.94,-249.5"/>
</g>
<!-- ThingsWeDoService -->
<g id="node12" class="node">
<title>ThingsWeDoService</title>
<ellipse fill="#fdb462" stroke="black" cx="116" cy="-104" rx="92.04" ry="18"/>
<text text-anchor="middle" x="116" y="-99.8" font-family="Times,serif" font-size="14.00">ThingsWeDoService</text>
</g>
<!-- ThingsWeDoService&#45;&gt;CoreModule -->
<g id="edge11" class="edge">
<title>ThingsWeDoService&#45;&gt;CoreModule</title>
<path fill="none" stroke="black" d="M116,-122.22C116,-142.37 116,-172 116,-172 116,-172 617.45,-172 617.45,-172"/>
<polygon fill="black" stroke="black" points="617.45,-175.5 627.45,-172 617.45,-168.5 617.45,-175.5"/>
</g>
<!-- HighlightBannerComponent -->
<g id="node13" class="node">
<title>HighlightBannerComponent</title>
<polygon fill="#ffffb3" stroke="black" points="2023.93,-190 1848.07,-190 1848.07,-154 2023.93,-154 2023.93,-190"/>
<text text-anchor="middle" x="1936" y="-167.8" font-family="Times,serif" font-size="14.00">HighlightBannerComponent</text>
</g>
<!-- HighlightBannerComponent&#45;&gt;HomeModule -->
<g id="edge12" class="edge">
<title>HighlightBannerComponent&#45;&gt;HomeModule</title>
<path fill="none" stroke="black" d="M1936,-190.29C1936,-212.21 1936,-246 1936,-246 1936,-246 1511.09,-246 1511.09,-246"/>
<polygon fill="black" stroke="black" points="1511.09,-242.5 1501.09,-246 1511.09,-249.5 1511.09,-242.5"/>
</g>
<!-- HomeComponent -->
<g id="node14" class="node">
<title>HomeComponent</title>
<polygon fill="#ffffb3" stroke="black" points="1830.55,-190 1715.45,-190 1715.45,-154 1830.55,-154 1830.55,-190"/>
<text text-anchor="middle" x="1773" y="-167.8" font-family="Times,serif" font-size="14.00">HomeComponent</text>
</g>
<!-- HomeComponent&#45;&gt;HomeModule -->
<g id="edge13" class="edge">
<title>HomeComponent&#45;&gt;HomeModule</title>
<path fill="none" stroke="black" d="M1773,-190.11C1773,-209.34 1773,-237 1773,-237 1773,-237 1511.07,-237 1511.07,-237"/>
<polygon fill="black" stroke="black" points="1511.07,-233.5 1501.07,-237 1511.07,-240.5 1511.07,-233.5"/>
</g>
<!-- LatestNewsComponent -->
<g id="node15" class="node">
<title>LatestNewsComponent</title>
<polygon fill="#ffffb3" stroke="black" points="1697.91,-190 1550.09,-190 1550.09,-154 1697.91,-154 1697.91,-190"/>
<text text-anchor="middle" x="1624" y="-167.8" font-family="Times,serif" font-size="14.00">LatestNewsComponent</text>
</g>
<!-- LatestNewsComponent&#45;&gt;HomeModule -->
<g id="edge14" class="edge">
<title>LatestNewsComponent&#45;&gt;HomeModule</title>
<path fill="none" stroke="black" d="M1624,-190.03C1624,-206.4 1624,-228 1624,-228 1624,-228 1510.9,-228 1510.9,-228"/>
<polygon fill="black" stroke="black" points="1510.9,-224.5 1500.9,-228 1510.9,-231.5 1510.9,-224.5"/>
</g>
<!-- ThingsWeDoComponent -->
<g id="node16" class="node">
<title>ThingsWeDoComponent</title>
<polygon fill="#ffffb3" stroke="black" points="1532.26,-190 1375.74,-190 1375.74,-154 1532.26,-154 1532.26,-190"/>
<text text-anchor="middle" x="1454" y="-167.8" font-family="Times,serif" font-size="14.00">ThingsWeDoComponent</text>
</g>
<!-- ThingsWeDoComponent&#45;&gt;HomeModule -->
<g id="edge15" class="edge">
<title>ThingsWeDoComponent&#45;&gt;HomeModule</title>
<path fill="none" stroke="black" d="M1454,-190.11C1454,-190.11 1454,-208.99 1454,-208.99"/>
<polygon fill="black" stroke="black" points="1450.5,-208.99 1454,-218.99 1457.5,-208.99 1450.5,-208.99"/>
</g>
<!-- BannerService -->
<g id="node18" class="node">
<title>BannerService</title>
<ellipse fill="#fdb462" stroke="black" cx="1284" cy="-172" rx="67.75" ry="18"/>
<text text-anchor="middle" x="1284" y="-167.8" font-family="Times,serif" font-size="14.00">BannerService</text>
</g>
<!-- BannerService&#45;&gt;HomeModule -->
<g id="edge17" class="edge">
<title>BannerService&#45;&gt;HomeModule</title>
<path fill="none" stroke="black" d="M1284,-190.03C1284,-206.4 1284,-228 1284,-228 1284,-228 1397.1,-228 1397.1,-228"/>
<polygon fill="black" stroke="black" points="1397.1,-231.5 1407.1,-228 1397.1,-224.5 1397.1,-231.5"/>
</g>
<!-- NewsService -->
<g id="node19" class="node">
<title>NewsService</title>
<ellipse fill="#fdb462" stroke="black" cx="1136" cy="-172" rx="61.95" ry="18"/>
<text text-anchor="middle" x="1136" y="-167.8" font-family="Times,serif" font-size="14.00">NewsService</text>
</g>
<!-- NewsService&#45;&gt;HomeModule -->
<g id="edge18" class="edge">
<title>NewsService&#45;&gt;HomeModule</title>
<path fill="none" stroke="black" d="M1136,-190.11C1136,-209.34 1136,-237 1136,-237 1136,-237 1397.08,-237 1397.08,-237"/>
<polygon fill="black" stroke="black" points="1397.08,-240.5 1407.08,-237 1397.08,-233.5 1397.08,-240.5"/>
</g>
</g>
</svg>
